<?xml version="1.0" encoding="iso-8859-1"?>
<!-- Generator: Adobe Illustrator 19.1.0, SVG Export Plug-In . SVG Version: 6.00 Build 0)  -->
<svg version="1.1" id="Capa_1" xmlns="http://www.w3.org/2000/svg" xmlns:xlink="http://www.w3.org/1999/xlink" x="0px" y="0px"
	 viewBox="0 0 64 64" style="enable-background:new 0 0 64 64;" xml:space="preserve">
<g>
	<g id="group-24svg">
		<path id="path-1_16_" style="fill:#205;" d="M43.613,64c-0.512,0-1.024-0.196-1.415-0.586L12.913,34.13
			c-1.174-1.174-1.174-3.083,0-4.257L42.198,0.586c0.781-0.782,2.047-0.782,2.829,0c0.781,0.781,0.781,2.047,0,2.828L16.441,32
			l28.586,28.586c0.781,0.781,0.781,2.047,0,2.828C44.636,63.805,44.124,64,43.613,64z"/>
		<path id="path-2_15_" style="fill:#205;" d="M50.468,56.713c-0.383,0-0.767-0.147-1.06-0.44L26.196,33.061
			c-0.281-0.281-0.439-0.663-0.439-1.06c0-0.398,0.158-0.78,0.439-1.061L49.408,7.729c0.586-0.586,1.535-0.586,2.121,0
			c0.586,0.586,0.586,1.535,0,2.121L29.378,32l22.151,22.151c0.586,0.586,0.586,1.535,0,2.121
			C51.236,56.566,50.852,56.713,50.468,56.713z"/>
	</g>
</g>
<g>
</g>
<g>
</g>
<g>
</g>
<g>
</g>
<g>
</g>
<g>
</g>
<g>
</g>
<g>
</g>
<g>
</g>
<g>
</g>
<g>
</g>
<g>
</g>
<g>
</g>
<g>
</g>
<g>
</g>
</svg>
