<?xml version="1.0" encoding="iso-8859-1"?>
<!-- Generator: Adobe Illustrator 19.1.0, SVG Export Plug-In . SVG Version: 6.00 Build 0)  -->
<svg version="1.1" id="Capa_1" xmlns="http://www.w3.org/2000/svg" xmlns:xlink="http://www.w3.org/1999/xlink" x="0px" y="0px"
	 viewBox="0 0 64 64" style="enable-background:new 0 0 64 64;" xml:space="preserve">
<g>
	<g id="group-25svg">
		<path id="path-1_17_" style="fill:#205;" d="M20.388,64c-0.512,0-1.023-0.196-1.414-0.586c-0.781-0.781-0.781-2.047,0-2.828
			L47.559,32L18.974,3.414c-0.781-0.781-0.781-2.047,0-2.828c0.78-0.782,2.047-0.782,2.828,0l29.286,29.286
			c1.174,1.174,1.174,3.083,0,4.257L21.802,63.415C21.412,63.805,20.9,64,20.388,64z"/>
		<path id="path-2_16_" style="fill:#205;" d="M13.532,56.713c-0.384,0-0.768-0.147-1.06-0.44c-0.586-0.586-0.586-1.535,0-2.121
			L34.622,32L12.472,9.849c-0.586-0.586-0.586-1.535,0-2.121c0.585-0.586,1.535-0.586,2.121,0L37.804,30.94
			c0.281,0.281,0.439,0.663,0.439,1.061c0,0.397-0.158,0.779-0.439,1.06L14.593,56.272C14.3,56.566,13.916,56.713,13.532,56.713z"/>
	</g>
</g>
<g>
</g>
<g>
</g>
<g>
</g>
<g>
</g>
<g>
</g>
<g>
</g>
<g>
</g>
<g>
</g>
<g>
</g>
<g>
</g>
<g>
</g>
<g>
</g>
<g>
</g>
<g>
</g>
<g>
</g>
</svg>
